<?xml version="1.0" standalone="no"?>
<!DOCTYPE svg PUBLIC "-//W3C//DTD SVG 20010904//EN"
 "http://www.w3.org/TR/2001/REC-SVG-20010904/DTD/svg10.dtd">
<svg version="1.0" xmlns="http://www.w3.org/2000/svg"
 width="300.000000pt" height="300.000000pt" viewBox="0 0 300.000000 300.000000"
 preserveAspectRatio="xMidYMid meet">
<metadata>
Created by potrace 1.10, written by Peter Selinger 2001-2011
</metadata>
<g transform="translate(0.000000,300.000000) scale(0.100000,-0.100000)"
fill="#000000" stroke="none">
<path d="M1186 2971 l-79 -17 -1 -65 c-1 -53 -6 -73 -28 -106 -31 -48 -97 -83
-153 -83 -52 0 -121 35 -148 76 l-23 33 -92 -61 -91 -60 22 -29 c15 -21 22
-48 25 -92 3 -54 0 -67 -24 -104 -54 -81 -161 -108 -245 -61 -21 12 -40 20
-42 17 -2 -2 -29 -42 -60 -89 l-57 -84 37 -30 c41 -34 72 -96 73 -145 0 -52
-37 -118 -83 -149 -33 -22 -53 -27 -106 -28 l-66 -1 -17 -84 c-23 -114 -23
-129 3 -129 72 0 153 -96 153 -180 0 -84 -81 -180 -153 -180 -26 0 -26 -15 -3
-130 l18 -85 52 3 c181 12 269 -203 132 -321 l-39 -33 56 -85 c31 -46 58 -86
60 -88 2 -3 21 5 42 17 46 26 128 29 170 8 36 -19 89 -80 97 -112 11 -43 -2
-123 -24 -154 l-21 -28 92 -60 91 -61 24 34 c50 70 148 93 230 54 65 -32 97
-86 98 -168 l1 -66 84 -17 c113 -23 129 -23 129 2 0 32 37 96 67 118 37 27
106 44 140 36 57 -13 111 -53 132 -97 12 -24 21 -51 21 -60 0 -21 11 -21 125
1 l90 17 -3 51 c-6 86 31 152 103 185 80 37 158 19 216 -50 l36 -41 90 62 91
63 -19 24 c-25 32 -41 94 -33 128 12 53 51 108 94 132 34 19 52 23 101 19 39
-3 69 -11 87 -25 l27 -20 62 90 63 91 -35 24 c-100 72 -97 231 6 299 35 23 53
28 106 28 56 0 64 3 68 20 15 61 35 168 35 181 0 8 -9 14 -20 14 -32 0 -96 37
-118 67 -35 49 -47 107 -32 156 7 23 21 54 32 70 22 30 86 67 118 67 24 0 24
7 5 102 -26 127 -19 116 -69 111 -82 -10 -155 30 -187 101 -41 91 -15 176 74
239 16 11 12 20 -45 102 l-63 91 -34 -23 c-69 -47 -184 -24 -239 47 -47 60
-48 154 -3 211 l18 24 -89 61 -90 61 -48 -48 c-38 -38 -56 -49 -95 -54 -124
-19 -223 70 -213 192 4 48 2 54 -16 58 -61 14 -169 35 -182 35 -8 0 -14 -10
-14 -22 0 -29 -37 -91 -71 -117 -86 -67 -220 -38 -269 59 -11 22 -20 48 -20
60 0 25 -22 25 -134 1z m21 -596 c66 -20 135 -81 170 -153 27 -55 28 -62 31
-244 l4 -188 -121 0 -121 0 0 156 c0 85 -4 163 -10 173 -5 10 -23 24 -40 31
-45 19 -87 -1 -100 -49 -8 -24 -10 -231 -8 -622 3 -561 4 -588 22 -608 26 -29
86 -29 112 0 17 19 19 41 22 195 l3 174 -40 0 -41 0 0 110 0 110 161 0 160 0
-3 -312 c-3 -305 -4 -314 -27 -366 -31 -69 -106 -137 -174 -157 -67 -20 -172
-19 -236 2 -68 22 -133 80 -168 151 l-28 57 0 665 0 665 23 51 c30 66 95 129
158 154 61 24 180 26 251 5z m788 -27 c9 -57 225 -1695 225 -1712 0 -14 -16
-16 -125 -16 -69 0 -125 1 -126 3 0 1 -12 96 -27 212 l-28 210 -70 3 -69 3
-24 -188 c-13 -103 -26 -200 -28 -215 l-5 -28 -124 0 -124 0 0 25 c0 13 29
246 65 517 36 271 86 651 111 843 25 193 47 356 49 363 3 9 42 12 149 12 l145
0 6 -32z"/>
<path d="M1794 1501 c-42 -18 -74 -69 -74 -118 0 -79 51 -133 125 -133 75 0
125 54 125 134 0 38 -6 52 -33 82 -26 29 -42 37 -77 40 -25 2 -54 0 -66 -5z"/>
</g>
</svg>
