<?xml version="1.0" standalone="no"?>
<!DOCTYPE svg PUBLIC "-//W3C//DTD SVG 20010904//EN"
 "http://www.w3.org/TR/2001/REC-SVG-20010904/DTD/svg10.dtd">
<svg version="1.0" xmlns="http://www.w3.org/2000/svg"
 width="300.000000pt" height="149.000000pt" viewBox="0 0 300.000000 149.000000"
 preserveAspectRatio="xMidYMid meet">
<metadata>
Created by potrace 1.10, written by Peter Selinger 2001-2011
</metadata>
<g transform="translate(0.000000,149.000000) scale(0.100000,-0.100000)"
fill="#000000" stroke="none">
<path d="M657 1103 c-4 -3 -7 -14 -7 -24 0 -29 -36 -43 -71 -29 -37 16 -57 1
-51 -38 5 -35 -18 -56 -53 -50 -33 7 -53 -16 -37 -43 24 -39 11 -72 -33 -81
-28 -5 -31 -37 -6 -54 27 -19 27 -60 1 -76 -30 -19 -25 -47 10 -59 35 -13 47
-43 30 -75 -16 -29 1 -55 29 -47 11 3 29 -1 41 -7 17 -9 21 -19 18 -41 -6 -40
13 -55 51 -39 38 15 71 -1 71 -35 0 -32 37 -34 63 -5 22 26 53 26 69 0 16 -26
58 -27 58 -2 0 22 30 52 52 52 9 0 21 -7 28 -15 17 -21 53 2 46 31 -3 11 2 31
11 43 12 18 22 22 44 17 37 -7 52 16 33 53 -11 21 -11 29 0 46 7 11 23 21 35
23 11 2 21 7 21 12 0 5 3 15 6 24 4 10 1 16 -10 16 -20 0 -39 36 -31 60 3 10
15 22 26 25 13 4 18 12 15 22 -3 8 -6 18 -6 23 0 5 -10 10 -21 12 -12 2 -28
12 -35 23 -11 17 -11 25 0 46 18 35 1 59 -36 52 -20 -4 -30 1 -42 20 -9 13
-14 32 -10 41 10 25 -25 49 -44 30 -7 -8 -21 -14 -31 -14 -22 0 -51 31 -51 53
0 24 -42 22 -58 -3 -7 -11 -23 -20 -37 -20 -14 0 -30 9 -37 20 -13 20 -38 26
-51 13z m51 -157 c9 -8 17 -40 20 -70 l4 -56 -36 0 c-35 0 -36 1 -36 40 0 29
-4 40 -15 40 -13 0 -15 -22 -13 -157 2 -99 7 -157 13 -155 6 2 9 34 8 78 l-3
75 38 -3 37 -3 0 -88 c0 -81 -2 -90 -24 -108 -30 -24 -82 -24 -112 0 -24 19
-24 22 -24 201 l0 182 29 25 c24 20 36 24 65 19 19 -3 41 -12 49 -20z m167 2
c6 -27 55 -399 55 -417 0 -8 -12 -11 -32 -9 -31 3 -33 6 -42 56 -14 84 -36 68
-49 -38 -1 -9 -15 -16 -35 -18 -25 -3 -32 0 -32 15 0 24 50 404 55 421 3 6 20
12 39 12 29 0 37 -4 41 -22z"/>
<path d="M810 716 c0 -13 6 -26 13 -29 22 -7 37 4 37 29 0 19 -5 24 -25 24
-20 0 -25 -5 -25 -24z"/>
<path d="M1257 1052 c-14 -15 -17 -39 -17 -126 0 -135 5 -146 70 -146 63 0 80
22 80 102 l0 58 -40 0 c-36 0 -40 -2 -40 -25 0 -14 5 -25 10 -25 6 0 10 -14
10 -31 0 -24 -4 -30 -17 -27 -16 3 -18 15 -18 93 0 78 2 90 18 93 11 2 17 -3
17 -13 0 -14 6 -16 27 -10 38 9 40 12 22 43 -12 22 -23 28 -60 30 -34 2 -49
-2 -62 -16z"/>
<path d="M1420 925 l0 -145 65 0 c63 0 65 1 65 25 0 23 -4 25 -40 25 -39 0
-40 1 -40 35 0 33 2 35 35 35 31 0 35 3 35 25 0 22 -4 25 -35 25 -33 0 -35 2
-35 35 0 34 1 35 40 35 36 0 40 3 40 25 0 24 -2 25 -65 25 l-65 0 0 -145z"/>
<path d="M1570 926 l0 -146 30 0 c29 0 29 0 32 68 l3 67 24 -67 c23 -62 27
-68 53 -68 l28 0 0 145 0 145 -30 0 c-29 0 -29 0 -32 -67 l-3 -67 -25 64 c-22
56 -29 65 -52 68 l-28 3 0 -145z"/>
<path d="M1770 925 l0 -145 65 0 c63 0 65 1 65 25 0 22 -4 25 -35 25 -33 0
-35 2 -35 35 0 32 2 35 30 35 25 0 30 4 30 25 0 21 -5 25 -30 25 -28 0 -30 3
-30 35 0 33 2 35 35 35 31 0 35 3 35 25 0 24 -2 25 -65 25 l-65 0 0 -145z"/>
<path d="M1930 925 l0 -145 25 0 c24 0 25 3 25 55 0 30 4 55 10 55 5 0 17 -25
25 -55 l16 -55 58 0 c54 0 57 1 68 31 15 39 47 37 51 -4 3 -23 8 -27 33 -27
16 0 29 3 29 6 0 4 -12 69 -26 146 l-27 139 -36 -3 -35 -3 -23 -125 c-31 -164
-32 -165 -54 -100 -18 52 -19 57 -3 86 21 38 14 112 -12 131 -10 7 -42 13 -71
13 l-53 0 0 -145z m90 80 c16 -19 3 -55 -21 -55 -15 0 -19 7 -19 35 0 37 18
47 40 20z m172 -67 c4 -37 2 -48 -8 -48 -15 0 -17 20 -8 69 8 40 10 37 16 -21z"/>
<path d="M2290 925 l0 -145 70 0 c68 0 70 1 70 25 0 23 -4 25 -40 25 l-40 0 0
120 0 120 -30 0 -30 0 0 -145z"/>
<path d="M1304 712 l-31 -3 -22 -122 c-12 -67 -25 -132 -28 -144 -4 -20 -1
-23 25 -23 25 0 30 5 36 31 5 25 10 30 28 27 17 -2 24 -11 26 -30 3 -24 8 -28
34 -28 26 0 29 3 25 23 -3 12 -15 76 -27 142 -12 66 -25 122 -29 125 -3 3 -20
4 -37 2z m16 -137 c0 -25 -4 -45 -10 -45 -5 0 -10 20 -10 45 0 25 5 45 10 45
6 0 10 -20 10 -45z"/>
<path d="M1440 700 c-14 -14 -20 -33 -20 -64 0 -48 12 -66 61 -91 20 -11 29
-23 29 -40 0 -31 -20 -43 -35 -22 -13 19 -33 21 -54 8 -11 -7 -11 -13 -1 -32
17 -32 29 -39 71 -39 48 0 71 26 71 83 1 53 -3 61 -53 93 -43 27 -54 64 -19
64 11 0 20 -6 20 -14 0 -9 8 -12 25 -8 18 3 25 11 25 28 0 49 -82 72 -120 34z"/>
<path d="M1622 708 c-26 -13 -35 -40 -30 -89 2 -27 12 -39 46 -62 30 -20 42
-35 42 -52 0 -31 -20 -43 -36 -21 -15 22 -48 17 -52 -7 -6 -30 27 -57 69 -57
60 0 88 43 75 115 -5 27 -16 39 -49 57 -44 25 -57 60 -24 66 9 2 17 -3 17 -11
0 -9 9 -12 30 -9 37 5 38 24 5 57 -26 27 -56 31 -93 13z"/>
<path d="M1943 712 c-23 -3 -23 -6 -23 -148 l0 -144 30 0 30 0 1 68 c1 64 2
65 11 30 8 -30 15 -38 33 -38 16 0 25 9 33 33 9 30 10 28 11 -30 l1 -63 30 0
30 0 0 145 0 145 -28 0 c-26 0 -30 -6 -51 -65 -13 -36 -24 -65 -26 -65 -1 0
-12 28 -25 63 -26 72 -28 74 -57 69z"/>
<path d="M2470 710 c-9 -6 -6 -26 14 -86 17 -52 26 -101 26 -142 l0 -62 30 0
30 0 0 63 c0 38 10 93 25 142 14 44 25 81 25 83 0 1 -13 2 -29 2 -28 0 -30 -3
-37 -45 -8 -57 -21 -58 -29 -1 -7 45 -28 63 -55 46z"/>
<path d="M1760 565 l0 -145 70 0 c68 0 70 1 70 25 0 23 -4 25 -40 25 -39 0
-40 1 -40 35 0 33 2 35 35 35 32 0 35 2 35 30 0 28 -3 30 -35 30 -32 0 -35 2
-35 30 0 28 2 30 40 30 36 0 40 3 40 25 0 24 -2 25 -70 25 l-70 0 0 -145z"/>
<path d="M2160 565 l0 -145 50 0 c41 0 56 5 75 25 28 27 33 80 12 110 -12 15
-12 23 0 47 18 34 9 84 -17 98 -10 6 -41 10 -69 10 l-51 0 0 -145z m88 68 c-4
-39 -28 -42 -28 -4 0 21 5 31 16 31 11 0 14 -8 12 -27z m2 -98 c10 -12 10 -21
2 -40 -17 -37 -32 -30 -32 15 0 42 9 50 30 25z"/>
<path d="M2340 565 l0 -145 70 0 c68 0 70 1 70 25 0 23 -4 25 -40 25 l-40 0 0
120 0 120 -30 0 -30 0 0 -145z"/>
</g>
</svg>
